<?xml version="1.0" encoding="UTF-8" standalone="no"?>
<!-- Created with Inkscape (http://www.inkscape.org/) -->

<svg
   version="1.1"
   id="svg2"
   width="666.66669"
   height="666.66669"
   viewBox="0 0 666.66669 666.66669"
   sodipodi:docname="7863988.eps"
   xmlns:inkscape="http://www.inkscape.org/namespaces/inkscape"
   xmlns:sodipodi="http://sodipodi.sourceforge.net/DTD/sodipodi-0.dtd"
   xmlns="http://www.w3.org/2000/svg"
   xmlns:svg="http://www.w3.org/2000/svg">
  <defs
     id="defs6" />
  <sodipodi:namedview
     id="namedview4"
     pagecolor="#ffffff"
     bordercolor="#000000"
     borderopacity="0.25"
     inkscape:showpageshadow="2"
     inkscape:pageopacity="0.0"
     inkscape:pagecheckerboard="0"
     inkscape:deskcolor="#d1d1d1" />
  <g
     id="g8"
     inkscape:groupmode="layer"
     inkscape:label="ink_ext_XXXXXX"
     transform="matrix(1.3333333,0,0,-1.3333333,0,666.66667)">
    <g
       id="g10"
       transform="scale(0.1)">
      <path
         d="M 5000,0 H 0 V 5000 H 5000 V 0"
         style="fill:#3B2D5F;fill-opacity:1;fill-rule:nonzero;stroke:none"
         id="path12" />
      <path
         d="M 2743.48,4105.25 C 2543.53,3927.5 2384.82,3692.02 2167.9,3540.84 1743.14,3244.81 1128.56,3292.7 806.547,2861.71 589.32,2570.97 575.297,2107.48 743.953,1741.32 c 168.664,-366.15 499.487,-628.67 845.997,-714.95 346.51,-86.268 703.42,-6.86 997.63,179 180.47,114 344.54,268.77 549.09,321.5 356.28,91.86 787.89,-137.9 1092.7,77.8 245.45,173.69 291.79,563.24 265.7,907.73 -26.35,347.93 -105.89,700.5 -265.53,1011.29 -332.22,646.76 -959.14,1049.97 -1486.06,581.56"
         style="fill:#9e7ad6;fill-opacity:1;fill-rule:nonzero;stroke:none"
         id="path14" />
      <path
         d="m 2765.97,2141.99 c 20.64,60.01 10.78,83.89 -40.78,102.55 13.58,-34.16 25.44,-63.97 40.78,-102.55 z m -577.7,2203.86 c -6.43,-9.33 -18.69,-22.97 -25.92,-38.9 -6.12,-13.5 -3.51,-29.33 10.98,-38.47 12.56,-7.92 49,6.5 60.52,16.02 12.07,9.97 -25.78,39.52 -45.58,61.35 z m 144.66,-177.33 c 22.83,35.14 22.9,67.75 -16.33,96.21 -9.53,6.91 -21.96,7.58 -32.37,2.08 -16.45,-8.69 -54.99,-27.63 -49.61,-69.1 1.13,-12.38 43.42,28.67 47.62,7.68 6.91,-34.57 33.49,-52.87 50.69,-36.87 z m 198.71,111.96 c -27.98,-5.08 -76.68,-15.25 -104.32,-20.27 -12.99,-2.35 -19.65,-17.06 -12.78,-28.33 18.14,-29.77 70.74,-41.06 96.96,-61.33 41.2,33.44 47.26,68.63 20.14,109.93 z m -194.73,-183.51 c -8.03,0.42 -28.9,-20.18 -39.31,-16.01 -10.09,4.04 -9.65,33.04 -18.07,40.55 -10.59,-3.26 -20.03,-4.87 -28.24,-8.95 -20.34,-10.13 -37.45,-19.15 -48.93,1.43 -3.05,5.46 -9.24,20.32 -18.71,26.36 -13.08,-57.26 -2.74,-105.75 23.48,-151.62 10.27,0 26.11,23.75 35.17,23.87 23.04,-23.04 34.91,-46.98 66.82,-33.02 36.1,33.02 26.89,11.52 74.5,-5.84 31.67,57.96 1.24,91.74 -46.71,123.23 z m 317.9,379.7 c 6.98,7.63 15.49,15.49 24.92,18.92 27.54,10.02 79.83,-16.88 92.28,-44.32 5.17,-11.37 13.79,-22.81 23.99,-29.23 15.13,-9.52 22.04,-27.38 20.68,-45.2 -1.76,-23.07 6.39,-41.3 23.33,-56.91 16.11,-14.85 21.1,-33.19 13.07,-54.61 -7.14,-19.05 -2.77,-33.54 11.57,-50.28 24.95,-29.15 23.46,-48.18 -4.23,-75.75 -21.17,-21.08 -19.52,-45.11 -18.59,-70.27 1.36,-37.11 1.55,-37.09 -34.26,-48.11 -21.27,-6.55 -27.17,-16.3 -26.71,-37.9 0.47,-22.15 1.02,-44.73 -2.83,-66.34 -1.62,-9.07 -13.73,-21.85 -22.38,-22.97 -20.31,-2.65 -33.71,-9.6 -44.57,-27.78 -10.74,-17.98 -30.53,-22.89 -49.28,-13.23 -19.09,9.84 -32.92,4.24 -46.98,-8.16 -3.97,-3.5 -8.74,-6.1 -13.1,-9.17 -51.91,-36.61 -54.52,-46.64 -26.35,-106.94 32.31,3.38 56.75,-9.75 76.18,-37.94 8.07,-11.69 25.85,-17.62 40.26,-23.72 14.61,-6.19 30.27,-10.6 45.9,-13.43 12.31,-2.22 25.75,-3.15 37.84,-0.61 31.28,6.57 38.13,3.84 57.73,-19.69 13.66,-16.4 29.07,-31.51 46.7,-43.55 21.91,-14.97 33.91,-34.29 45.45,-58.07 39.08,-80.47 41.67,-167.3 50.97,-253.17 3.49,-32.29 0.46,-63.79 -10.82,-94.56 -9.31,-25.42 -12.21,-51.41 -2.7,-78.39 17.96,18.23 118.65,234.31 129.55,279.97 -26,-30.35 -41.82,-63.22 -71.73,-81.52 -18.16,9.12 -14.49,23.81 -13.5,36.3 1.36,17.23 5.31,34.24 7.84,51.4 7.42,50.42 28.98,90.56 77.3,113.81 14.03,6.75 26.8,17.99 37.34,29.69 22.3,24.75 49.86,30.65 80.11,23.93 25.81,-5.74 50.54,-11.77 77.91,-10.69 21.71,0.86 44.2,-8.8 65.81,-15.51 38.17,-11.87 76.12,-24.53 113.76,-37.99 12.33,-4.42 25.33,-10.28 34.71,-19.03 37.06,-34.53 73.55,-69.75 108.61,-106.29 11.24,-11.71 27.76,-28.38 13.67,-45.4 -14.29,-17.25 -32.65,-3.82 -46.54,5.68 -28.55,19.54 -32.31,33.17 -60.02,53.91 -10.89,8.14 -58.37,30.23 -62.28,26.43 12.38,-16.58 24.75,-33.17 37.15,-49.73 41.31,-55.14 46.48,-117.73 35.97,-182.8 -0.3,-1.85 -1.07,-3.64 -2.15,-5.37 -7.22,-11.53 -24.12,-11.99 -33.24,-1.88 -2.53,2.8 -4.45,5.74 -5.1,8.94 -6.96,33.9 -18.54,62.47 -23.74,99.95 -15.41,12.77 -25.02,33.52 -47.9,52.47 2.86,-11.3 2.97,-16.74 5.44,-20.74 41.57,-68.01 18.4,-140.13 12.54,-210.85 -0.58,-7.1 -13.31,-17.89 -20.99,-18.43 -8.27,-0.58 -22.11,7.03 -24.96,14.38 -7.57,19.52 -13.01,40.63 -14.69,61.47 -2.23,27.83 -1.48,56.1 0.5,84.01 2.65,37.18 -17.48,61.1 -44.04,83.78 21.71,-68.9 -6.97,-125.93 -38.75,-182.23 -3.91,-6.92 -7.93,-14.2 -13.49,-19.71 -12.53,-12.46 -30.04,-10.9 -35.95,5.38 -5.68,15.66 -8.3,33.75 -6.95,50.34 2.15,26.45 8.38,52.6 13.49,78.75 3.72,18.99 1.29,36.46 -12.72,60.36 -7.65,-15.99 -14.08,-26.58 -17.99,-38.03 -26.68,-78.24 -51.54,-157.13 -79.44,-234.93 -42.76,-119.22 -86.79,-238 -132.06,-356.28 -7.26,-18.96 -21.53,-36.85 -36.64,-50.79 -21.56,-19.88 -51.09,-17.29 -72.16,3.12 -8.47,8.2 -16.76,18.02 -21.14,28.74 -21.65,52.96 -42.31,106.35 -62.64,159.83 -13.57,35.71 -26.03,71.84 -38.76,107.19 -37.49,-4.59 -47.86,-23.85 -52.71,-54.06 -11.12,-69.38 1.29,-135.09 22.67,-200.23 7.5,-22.84 15.94,-45.15 9.57,-70.23 -1.69,-6.63 2.24,-15.11 4.75,-22.33 10.86,-31.22 25.03,-61.6 32.6,-93.57 10.66,-44.89 28.13,-83.25 69.09,-107.27 9.55,-5.6 18.49,-12.25 26.66,-19.71 12.15,-11.09 21.22,-24.17 12.96,-41.22 -8.34,-17.2 -23.66,-21.33 -40.46,-18.01 -42.4,8.37 -75.9,28.28 -97.77,68.41 -25.27,46.42 -54.78,90.52 -85.01,134.85 11.47,-52.78 16.79,-107.43 43.93,-155.45 8.83,-15.62 24.4,-27.76 38.05,-40.23 17.68,-16.17 37.77,-29.83 54.57,-46.82 28.04,-28.35 39.59,-62.65 29.75,-102.65 -3.49,-14.24 -6.81,-28.54 -9.57,-42.93 -5.5,-28.74 -1.9,-55.52 16.51,-79.65 30.08,-39.44 35.78,-79.06 1.58,-120.25 -5.29,-6.35 -4.29,-19.74 -2.9,-29.4 2.63,-18.43 8.32,-36.39 11.39,-54.77 1.74,-10.34 3.37,-21.83 0.66,-31.58 -17.67,-63.42 4.1,-122.92 17.29,-183.14 6.53,-29.81 16.89,-58.76 23.75,-88.51 6.13,-26.53 4.71,-52.13 -10.27,-77.16 -5.72,-9.57 -6.36,-26.67 -1.89,-37.19 62.78,-147.64 76.29,-307.16 112.67,-461.109 5.81,-24.609 9.87,-49.691 16.82,-73.973 8.38,-29.289 24.31,-53.758 54.66,-64.656 23.7,-8.512 33.06,-25.934 32.68,-49.371 -0.62,-38.66 -1.83,-77.301 -3.47,-115.922 -1.33,-31.848 -5.05,-63.637 -5.19,-95.457 -0.17,-40.621 -11.85,-57.281 -52.09,-60.473 -50.45,-4 -101.09,-6.179 -151.7,-7.367 -31.17,-0.73 -39.85,5.778 -43.15,24.77 -3.98,22.918 4.15,35.359 29.83,46.008 25.52,10.582 40.85,36.972 35.69,64.109 -5.68,29.941 -14.19,60.422 -27.57,87.66 -39.54,80.52 -70.21,163.43 -92.97,250.563 -16.36,62.588 -47,121.518 -72.19,181.678 -4.51,10.77 -12.88,20.25 -20.64,29.31 -36.62,42.78 -56.3,92.95 -67.32,147.53 -6.43,31.85 -8.93,65.7 -37.16,96.25 -9.84,-29.19 -11.4,-54.88 -13.1,-80.49 -2.21,-33.28 -3.49,-66.64 -6.46,-99.85 -1.17,-13.06 -2.95,-27.68 -9.75,-38.17 -6.31,-9.73 -19.59,-20.41 -29.95,-20.57 -10.46,-0.16 -26.45,9.84 -30.5,19.42 -7.51,17.74 -11.53,38.55 -10.77,57.82 1.38,34.54 6.83,68.97 11.57,103.3 6.32,45.82 0.52,90.47 -11,134.72 -5.04,19.36 -11.34,38.42 -15.49,57.95 -5.7,26.82 -17.18,49.67 -36.54,69.58 -32.58,33.52 -47.37,77.44 -59.16,120.59 -16.48,60.3 -26.34,122.41 -38.98,183.77 -3.69,17.97 -7.17,36 -12.54,63.04 -23.04,-33.55 -34,-62.19 -38.01,-93.45 -5.93,-46.24 -8.42,-93.1 -17.44,-138.7 -3.69,-18.66 -20.58,-34.72 -33.55,-55.26 17.75,-45.54 37.4,-96.4 57.38,-147.14 43.01,-109.17 56.48,-224.55 72.65,-339.52 16.74,-119 29.89,-238.23 33.51,-358.449 2.05,-68.371 29.7,-129.672 58,-189.891 17.21,-36.621 24.43,-72.57 17.77,-112.238 -4.57,-27.23 -19.95,-43.723 -46.12,-48.332 -26.16,-4.602 -52.79,-7.762 -79.33,-8.859 -67.96,-2.84 -135.97,-5.34 -203.97,-5.711 -42.54,-0.219 -85.16,2.961 -127.65,5.941 -26.18,1.848 -40.19,15.32 -40.65,35.399 -0.55,24.218 15.66,40.14 41.89,43.832 48.73,6.859 97.72,12.886 145.75,23.207 21.34,4.589 42.53,16.152 60.44,29.152 37.85,27.48 39.61,39.168 26.09,84.09 -34.97,116.199 -67.79,233.058 -104.54,348.689 -37.53,118.11 -78.71,235.06 -118.5,353.13 -12.28,3.61 -31.36,3.52 -37.66,12.44 -9.06,12.82 -10.99,32.1 -11.95,48.85 -0.98,17.08 2.39,34.51 4.73,51.66 7.91,57.96 -20.55,104.42 -45,158.23 -20.17,-20.81 -21.79,-42.45 -28,-61.96 -4.42,-13.9 -5.99,-29.9 -14.18,-41.03 -6.8,-9.24 -21.93,-18.22 -32.42,-17.24 -10.66,0.99 -23.66,12.46 -29.2,22.79 -5.8,10.83 -6.57,26.12 -4.84,38.83 2.67,19.64 7.39,39.5 14.7,57.9 16.11,40.51 23.06,81.04 17.65,125.08 -2.8,22.87 1.75,48.16 8.91,70.46 17.99,56.01 33.23,111.84 37.43,171.22 3.76,53.01 15.11,105.48 23.03,158.2 0.95,6.29 1.35,12.67 2.41,22.96 -10.34,-1.98 -17.45,-3.7 -24.67,-4.66 -37.32,-4.95 -62.91,17.46 -59.22,55.5 1.88,19.37 8.75,39.22 17.51,56.78 16.65,33.38 36.98,64.89 54.56,97.84 40.53,75.98 52.36,155.54 26.88,239.03 -12.08,39.61 -6.96,79.44 -1.52,119.06 5.62,40.95 13.26,81.62 19.6,122.47 2.19,14.12 3.15,28.43 5.26,48.17 -20.57,-4.36 -35.18,-6.11 -50.24,-11.94 -54.78,-21.2 -110.38,-40.75 -168.25,-50.81 -31.87,-5.55 -55.94,-19.92 -69.41,-46.11 -5.61,-10.91 1.53,-47.01 5.81,-56.52 23.81,-109.07 -17.67,-101.12 -48.84,-155.31 l -0.1,-0.17 c -6.63,-11.43 -22.73,-13.02 -31.26,-2.92 -7.83,9.28 -9.77,21.02 -6.1,35.62 5.19,20.67 10.5,41.31 15.36,62.06 4.86,20.69 -3.84,39.39 -22.97,49.29 -17.53,9.08 -31.59,5.89 -46.53,-8.47 -23.73,-22.8 -35.28,-47.01 -31.97,-81.33 3.7,-38.27 1.19,-77.19 0.44,-115.82 -0.16,-8.44 -1.14,-16.89 -5.53,-23.68 -6.77,-10.47 -21.81,-11.16 -30.97,-2.69 -10.34,9.55 -15.3,23.05 -15.32,37.8 -0.08,56.8 -20.49,113.38 -2.23,170.4 0.48,1.48 -2.32,4.01 -4.61,7.66 -47.86,-32.67 -63.16,-80.22 -61.37,-134.37 1.02,-30.6 -5.74,-55.38 -33.1,-71.66 -3.2,-1.9 -14.13,-2.29 -21.04,4.62 -13.06,12.29 -8.47,51.79 -6.91,79.88 1.69,30.49 2.08,60.06 10.75,89.1 8.21,27.51 33.27,51.09 48.97,83.35 -34.85,-22.47 -66.79,-38.15 -84.38,-73.3 -5.11,-10.21 -10.7,-20.19 -17.67,-29.23 -20.09,-26.02 -24.83,-32.36 -46.91,-30.28 -11.05,1.04 -17.99,12.33 -14.47,22.86 8.25,24.64 26.97,44.86 34.02,69.43 9.92,34.6 38.06,52.8 69.39,81.1 -31.38,2.22 -50.35,-5.57 -67.87,-19.37 -17.78,-14.01 -34.46,-29.93 -53.81,-41.27 -13.51,-7.92 -32.42,-23.28 -46.27,-5.2 -12.95,16.91 6.76,27.81 16.95,39.43 15.83,18.03 32.12,35.8 46.43,55 15.2,20.41 54.12,38.73 79.52,43.34 84.49,-3.84 112.14,7.04 174.35,21.51 63.36,14.73 119.55,41.23 181.95,59.62 25.18,7.42 48.38,21.53 70.92,31.88 6.71,48.71 8.35,51.53 56.38,60.34 30.27,5.55 57.56,12.99 67.44,45.5 -10.57,13.25 -27.36,25.18 -28.6,38.55 -1.13,12.28 14.48,26.12 23.45,40.44 -18.43,59.15 -10.35,114.54 33.76,163.93 15.75,17.64 27.25,39.07 40.63,58.81 9.69,14.31 18.97,28.91 28.98,43 13.11,18.46 28.69,35.45 39.77,55.02 20.08,35.43 45.93,59.81 82.64,81.58 38.8,23.03 69.95,34.13 116.33,29.62 47.29,-4.61 97.11,12.48 141.63,34.49 8.59,4.25 14.91,17.51 17.74,27.86 3.03,11.08 0.68,23.63 0.68,41.07 -18.62,0 -35.28,1.32 -51.67,-0.22 -79.86,-7.56 -137.59,34 -189.64,86.25 -10.55,10.59 -15.79,27.74 -20.3,42.83 -11.46,38.3 -21.01,77.18 -31.54,115.76 -11.79,43.2 -13.55,86.35 -4.79,130.65 4.84,24.46 2.82,48.97 -3.62,74.68 -6.48,25.89 -1.53,55.14 1.39,82.61 0.96,9.13 9.29,21.23 17.5,25.11 22.09,10.47 26.87,28.1 26.36,49.11 -0.74,30.66 5,58.45 30.49,78.9 3.02,2.42 7.5,6.18 7.28,9 -2.07,26.49 18.96,35.95 35.89,46.23 18.16,11.03 32.62,24.75 44.75,41.41 3.13,4.32 8.58,11.17 12.28,15.02 30.64,31.84 42.52,32.5 77.22,-1.34 18.81,6.25 41.5,10.39 60.76,20.85 53.78,29.19 102.45,16.25 150.74,-12.5 8.87,-5.28 18.81,-11.88 28.44,-12.18 38.2,-1.2 52.81,-26.42 62.3,-57.44 5.83,-19.05 23.12,-41.41 29.24,-34.72"
         style="fill:#ffffff;fill-opacity:1;fill-rule:nonzero;stroke:none"
         id="path16" />
    </g>
  </g>
</svg>
